# xmcd
#
# Track frame offsets:
#	215
#	21820
#	43802
#	66827
#	90917
#
# Disc length: 1535 seconds
#
# Revision: 1
# Processed by: cddbd v1.4PL0 Copyright (c) Steve Scherf et al.
# Submitted via: EasyCDDAExtractor 5.0.7
#
DISCID=3605fd05
DTITLE=Soul II Soul - Missing You
DYEAR=1900
DGENRE=
TTITLE0=Missing You(Thumpin' Bass Mix)
TTITLE1=Missing You(Healer Mix)
TTITLE2=Missing You(Healer Instrumental)
TTITLE3=Missing You(Humanity Mix)
TTITLE4=Missing You(LP Version)
EXTD=
EXTT0=
EXTT1=
EXTT2=
EXTT3=
EXTT4=
PLAYORDER=
